<svg width="26" height="26" viewBox="0 0 26 26" fill="none" xmlns="http://www.w3.org/2000/svg">
<path d="M18.1353 0.314819H8.76025C4.44619 0.314819 0.947754 3.81326 0.947754 8.12732V17.5023C0.947754 21.8164 4.44619 25.3148 8.76025 25.3148H18.1353C22.4493 25.3148 25.9478 21.8164 25.9478 17.5023V8.12732C25.9478 3.81326 22.4493 0.314819 18.1353 0.314819ZM23.604 17.5023C23.604 20.5179 21.1509 22.9711 18.1353 22.9711H8.76025C5.74463 22.9711 3.2915 20.5179 3.2915 17.5023V8.12732C3.2915 5.11169 5.74463 2.65857 8.76025 2.65857H18.1353C21.1509 2.65857 23.604 5.11169 23.604 8.12732V17.5023Z" fill="url(#paint0_linear)"/>
<defs>
<linearGradient id="paint0_linear" x1="3.23627" y1="23.0265" x2="23.6592" y2="2.60318" gradientUnits="userSpaceOnUse">
<stop stop-color="#FFC107"/>
<stop offset="0.507" stop-color="#F44336"/>
<stop offset="0.99" stop-color="#9C27B0"/>
</linearGradient>
</defs>
</svg>
